<?xml version="1.0" encoding="utf-8"?>
<!-- Generator: Adobe Illustrator 22.0.1, SVG Export Plug-In . SVG Version: 6.00 Build 0)  -->
<svg version="1.1" id="Layer_1" xmlns="http://www.w3.org/2000/svg" xmlns:xlink="http://www.w3.org/1999/xlink" x="0px" y="0px"
	 viewBox="0 0 308 307" style="enable-background:new 0 0 308 307;" xml:space="preserve">
<style type="text/css">
	.st0{fill:#FFFDF3;stroke:#E09F96;stroke-width:2;stroke-miterlimit:10;}
	.st1{fill:#FFFDF3;stroke:#E09F96;stroke-miterlimit:10;}
	.st2{fill:#FFFDF3;}
	.st3{fill:#E09F96;}
</style>
<g>
	<circle class="st0" cx="154.2" cy="154.2" r="148.9"/>
	<circle class="st1" cx="154.2" cy="154.2" r="144.4"/>
	<g id="XMLID_7359_">
		<path id="XMLID_7373_" class="st2" d="M120,116.2c-2.8-1.8-5-4-6.8-6.7c-1.9-2.8-3.5-5.9-6.1-8.1c-1.8-1.6-4.1-2.7-6.4-3.5
			c-3.2-2.4-6.7-4.1-10.5-5.3c-3.7-1.2-7.5-2-11-3.8c-4-2-6.4-5.3-8.8-9c-1.9-3-3.7-6-6.5-8.2c-0.3-0.6-0.6-1.2-0.9-1.7
			c-0.3-0.5-1.1-0.5-1.2,0.2l-0.1,1.2c-0.1,0.1-0.2,0.2-0.2,0.4C61,79,60.5,86.3,60.1,93.7c-0.4,6.7-0.9,13.3,1.2,19.8
			c1.8,5.6,4.2,11.4,8,15.9c3.9,4.6,9.6,6.7,14.2,10.4c4.4,3.6,7.4,8.9,8.1,14.6c0.4,2.7-0.1,5.4,0.2,8.1c0.3,2.6,1.6,4.8,3.2,6.8
			c2,2.3,4.4,4.3,6.6,6.4c2.4,2.3,4.8,4.5,7.2,6.8c2.2,2.1,4.4,4.3,6.8,6.3c2.4,2.1,5,3.7,7.7,5.5c0.8,0.5,1.5,1.1,2.2,1.7
			c0.3,0.3,0.6,0.6,0.9,0.8c1.2,1.1,2.1,2.5,2.5,4.1c0.7,2.5-0.2,5.2-2.8,6c-3,1.1-4.2-2.2-6.2-3.8c-1.7-1.4-3.8-2.2-6-2.4
			c-0.3-0.6-1.2-0.4-1.2,0.2c-0.2,0.3-0.2,0.7,0.1,0.9c0,1.3-0.5,2.5-0.5,3.8c0,1.3,0.5,2.5,1.4,3.5c2.3,2.2,6.1,2.1,9,1.6
			c3-0.5,6.9-1.9,8.9-4.4c1.9-2.4,1-6.4,0.1-9c0.1,0,0.2-0.1,0.3-0.1c2.9-1.2,4.3-4.3,5-7.2c0.4-1.8,0.5-3.7,1.5-5.3
			c0.9-1.5,2.2-2.7,3.1-4.1c1.7-2.7,2.5-5.9,3-9c1.1-6.2,2-12.6,1.5-18.9c-0.5-6.5-3-12.5-5.9-18.3c-1.5-2.9-2.9-6-5.1-8.5
			c-1.9-2.2-4.4-3.9-6.9-5.3C125.4,119.1,122.6,117.8,120,116.2z"/>
		<g id="XMLID_7360_">
			<g id="XMLID_7367_">
				<path id="XMLID_7372_" class="st3" d="M98.7,98.8c-0.4,6.3-0.9,12.5-1.5,18.7c0,0.1-0.1,0.2-0.2,0.1
					c-9.3-6.8-21.1-9.5-30.1-16.9c-2.4-2-4.6-4.3-6.3-6.9c-0.1-0.2,0.2-0.3,0.3-0.1c6.3,9.9,18.1,13.7,28.1,18.8
					c2.7,1.4,5.4,2.9,7.9,4.7c0.6-6.1,1.1-12.3,1.5-18.5C98.4,98.6,98.7,98.6,98.7,98.8z"/>
				<path id="XMLID_7371_" class="st3" d="M78.7,89.9c-3.8-0.2-7.6-0.8-11.3-1.8c-0.2-0.1-0.1-0.4,0.1-0.3c3.7,1.1,7.4,1.7,11.2,1.8
					C78.9,89.6,78.9,89.9,78.7,89.9z"/>
				<path id="XMLID_7370_" class="st3" d="M116.2,111.9c0.8,11,0.3,22.1-1.6,33c0,0.1-0.2,0.2-0.3,0.1c-10.9-13-29.4-13.4-43-22.1
					c-3.8-2.4-7.1-5.4-9.4-9.2c-0.1-0.2,0.2-0.3,0.3-0.1c4.5,7.4,12.5,11.5,20.4,14.5c7.3,2.8,15,4.9,21.9,8.7
					c3.7,2,7.1,4.6,9.9,7.8c1.8-10.7,2.3-21.7,1.5-32.5C115.8,111.8,116.1,111.7,116.2,111.9z"/>
				<path id="XMLID_7369_" class="st3" d="M132,137.9c-0.3,6.5-1.8,12.8-3.1,19.1c-0.8,4.2-1.7,8.4-2.5,12.7c0,0.1-0.2,0.2-0.3,0.1
					c-2.6-5.5-7.5-9.5-13.3-11.2c-2.8-0.8-5.6-1.3-8.3-2.2c-2.7-0.9-5.2-2.1-7.6-3.7c-2.7-1.7-5.1-3.8-7.2-6.2
					c-0.1-0.2,0.1-0.4,0.2-0.2c4,4.5,9.1,8,14.8,9.8c2.8,0.9,5.7,1.4,8.5,2.3c2.7,0.8,5.3,2.1,7.5,4c2.3,1.9,4.2,4.3,5.5,6.9
					c1.4-6.9,2.8-13.8,4.1-20.7c1.1-5.6,2-11.5,1.1-17.3c-0.5-3.2-1.6-6.4-3.4-9.1c-0.1-0.2,0.1-0.4,0.2-0.2
					C131.4,126.6,132.2,132.3,132,137.9z"/>
				<path id="XMLID_7368_" class="st3" d="M144.4,165.1c-0.6,5.1-2.3,10-5.1,14.3c-2.7,4.3-7.2,7.8-8.1,13c0,0.1-0.2,0.2-0.3,0.1
					c-2.3-2.2-4.6-4.4-7.2-6.2c-2.6-1.8-5.4-3.1-8.3-4.2c-2.8-1-5.5-2.1-8.1-3.6c-2.7-1.6-5.2-3.4-7.7-5.3c-0.2-0.1,0-0.4,0.2-0.3
					c3.9,3,8,5.8,12.6,7.7c2.3,0.9,4.6,1.7,6.9,2.7c2.1,1,4.1,2.2,5.9,3.7c2,1.6,3.9,3.3,5.8,5.1c1-4.8,4.9-8.1,7.5-12
					c3-4.5,4.9-9.6,5.6-15C144.1,164.9,144.4,164.9,144.4,165.1z"/>
			</g>
			<path id="XMLID_7366_" class="st3" d="M108.8,133.9c4,6.9,7.7,14,11.3,21.1c3.1,6.2,6,12.5,8.1,19.1c2.3,7.3,3.6,14.8,3,22.5
				c0,0.4-0.7,0.4-0.6,0c1-14.1-4.2-27.5-10.4-39.9c-3.3-6.7-6.8-13.3-10.4-19.8c-4.2-7.4-8.7-14.7-14.3-21.1
				c-3.2-3.7-6.9-6.9-10.6-10c-3.4-2.9-6.8-6-9.4-9.7c-0.2-0.3,0.2-0.7,0.5-0.4c5,7,12.5,11.7,18.3,17.9
				C99.9,119.7,104.6,126.7,108.8,133.9z"/>
			<path id="XMLID_7361_" class="st3" d="M120,116.2c-2.8-1.8-5-4-6.8-6.7c-1.9-2.8-3.5-5.9-6.1-8.1c-1.8-1.6-4.1-2.7-6.4-3.5
				c-3.2-2.4-6.7-4.1-10.5-5.3c-3.7-1.2-7.5-2-11-3.8c-4-2-6.4-5.3-8.8-9c-1.9-3-3.7-6-6.5-8.2c-0.3-0.6-0.6-1.2-0.9-1.7
				c-0.3-0.5-1.1-0.5-1.2,0.2l-0.1,1.2c-0.1,0.1-0.2,0.2-0.2,0.4C61,79,60.5,86.3,60.1,93.7c-0.4,6.7-0.9,13.3,1.2,19.8
				c1.8,5.6,4.2,11.4,8,15.9c3.9,4.6,9.6,6.7,14.2,10.4c4.4,3.6,7.4,8.9,8.1,14.6c0.4,2.7-0.1,5.4,0.2,8.1c0.3,2.6,1.6,4.8,3.2,6.8
				c2,2.3,4.4,4.3,6.6,6.4c2.4,2.3,4.8,4.5,7.2,6.8c2.2,2.1,4.4,4.3,6.8,6.3c2.4,2.1,5,3.7,7.7,5.5c0.8,0.5,1.5,1.1,2.2,1.7
				c0.3,0.3,0.6,0.6,0.9,0.8c1.2,1.1,2.1,2.5,2.5,4.1c0.7,2.5-0.2,5.2-2.8,6c-3,1.1-4.2-2.2-6.2-3.8c-1.7-1.4-3.8-2.2-6-2.4
				c-0.3-0.6-1.2-0.4-1.2,0.2c-0.2,0.3-0.2,0.7,0.1,0.9c0,1.3-0.5,2.5-0.5,3.8c0,1.3,0.5,2.5,1.4,3.5c2.3,2.2,6.1,2.1,9,1.6
				c3-0.5,6.9-1.9,8.9-4.4c1.9-2.4,1-6.4,0.1-9c0.1,0,0.2-0.1,0.3-0.1c2.9-1.2,4.3-4.3,5-7.2c0.4-1.8,0.5-3.7,1.5-5.3
				c0.9-1.5,2.2-2.7,3.1-4.1c1.7-2.7,2.5-5.9,3-9c1.1-6.2,2-12.6,1.5-18.9c-0.5-6.5-3-12.5-5.9-18.3c-1.5-2.9-2.9-6-5.1-8.5
				c-1.9-2.2-4.4-3.9-6.9-5.3C125.4,119.1,122.6,117.8,120,116.2z M128.8,197.7c0.6,0.1,1.1,0.1,1.7,0c0,0.1,0,0.2,0,0.2
				c0.5,1.5,0.8,3,0.8,4.6c0,1.7-0.4,3-1.9,4c-2.2,1.6-4.8,2.6-7.5,3c-2.6,0.4-6.8,0.5-8.1-2.4c-0.7-1.6,0.2-3.4,0.2-5.2
				c1.6,0.2,3.1,0.7,4.4,1.6c1.4,1,2.2,2.4,3.4,3.6c1.4,1.4,3.5,1.6,5.3,0.7C131.4,205.8,131,201,128.8,197.7z M97.1,96.9
				c-4.7-0.9-9.6-0.7-14.4-1.4c-6.4-0.9-13-3.3-15.3-9.9C66,81.9,66,77.8,64.9,74c2.2,2.4,3.8,5.3,5.6,8.1c2.1,3.2,4.5,5.9,7.9,7.6
				c3.3,1.7,6.9,2.6,10.5,3.7C91.7,94.3,94.5,95.4,97.1,96.9z M117.2,115.8c2.2,1.7,4.7,3,7.2,4.4c2.5,1.4,5.1,2.7,7.4,4.5
				c2.7,2.2,4.4,5.1,6,8.1c2.9,5.6,5.8,11.5,6.7,17.8c0.9,6.2-0.1,12.5-0.9,18.7c-0.4,2.9-0.9,5.8-2.1,8.6c-0.7,1.5-1.5,2.9-2.6,4.2
				c-0.8,1-1.7,1.9-2.2,3.1c-1.2,2.8-0.9,5.9-2.6,8.6c-1.4,2.2-4.5,3.6-6.7,2.2c-0.3-0.3-0.6-0.6-1-0.9c0,0-0.1-0.1-0.1-0.1
				c-0.1-0.1-0.2-0.2-0.3-0.2c-1.7-1.3-3.6-2.4-5.4-3.6c-2.9-1.9-5.5-4.3-8-6.7c-4.9-4.6-9.8-9.2-14.6-13.9
				c-2.2-2.2-4.3-4.6-4.8-7.8c-0.4-2.8,0.1-5.6-0.3-8.4c-0.7-5.2-3.2-10.2-7-13.9c-4.5-4.4-10.8-6.4-15.1-11
				c-4.3-4.7-7-11.4-8.8-17.5c-1.8-6.5-1-13.2-0.7-19.8c0.4-6.6,0.8-13.2,1.3-19.8l0,0c0.1,0,0.1,0.1,0.2,0.1
				c2,4.7,1.5,10.1,3.5,14.8c2.4,5.7,8.2,8.3,14,9.4c5.7,1.1,11.6,0.7,17.3,1.9c0.8,0.2,1.5,0.4,2.3,0.6c0.1,0.1,0.2,0.1,0.2,0.2
				c0.2,0.1,0.4,0.2,0.6,0.1c1.6,0.6,3,1.3,4.4,2.3c2.8,2,4.5,5.1,6.4,7.9C113.2,111.8,114.9,114,117.2,115.8z"/>
		</g>
	</g>
	<g id="XMLID_1_">
		<path id="XMLID_15_" class="st2" d="M181.9,121.2c2.8-1.8,5-4,6.8-6.7c1.9-2.8,3.5-5.9,6.1-8.1c1.8-1.6,4.1-2.7,6.4-3.5
			c3.2-2.4,6.7-4.1,10.5-5.3c3.7-1.2,7.5-2,11-3.8c4-2,6.4-5.3,8.8-9c1.9-3,3.7-6,6.5-8.2c0.3-0.6,0.6-1.2,0.9-1.7
			c0.3-0.5,1.1-0.5,1.2,0.2l0.1,1.2c0.1,0.1,0.2,0.2,0.2,0.4c0.6,7.4,1.1,14.8,1.5,22.1c0.4,6.7,0.9,13.3-1.2,19.8
			c-1.8,5.6-4.2,11.4-8,15.9c-3.9,4.6-9.6,6.7-14.2,10.4c-4.4,3.6-7.4,8.9-8.1,14.6c-0.4,2.7,0.1,5.4-0.2,8.1
			c-0.3,2.6-1.6,4.8-3.2,6.8c-2,2.3-4.4,4.3-6.6,6.4c-2.4,2.3-4.8,4.5-7.2,6.8c-2.2,2.1-4.4,4.3-6.8,6.3c-2.4,2.1-5,3.7-7.7,5.5
			c-0.8,0.5-1.5,1.1-2.2,1.7c-0.3,0.3-0.6,0.6-0.9,0.8c-1.2,1.1-2.1,2.5-2.5,4.1c-0.7,2.5,0.2,5.2,2.8,6c3,1.1,4.2-2.2,6.2-3.8
			c1.7-1.4,3.8-2.2,6-2.4c0.3-0.6,1.2-0.4,1.2,0.2c0.2,0.3,0.2,0.7-0.1,0.9c0,1.3,0.5,2.5,0.5,3.8c0,1.3-0.5,2.5-1.4,3.5
			c-2.3,2.2-6.1,2.1-9,1.6c-3-0.5-6.9-1.9-8.9-4.4c-1.9-2.4-1-6.4-0.1-9c-0.1,0-0.2-0.1-0.3-0.1c-2.9-1.2-4.3-4.3-5-7.2
			c-0.4-1.8-0.5-3.7-1.5-5.3c-0.9-1.5-2.2-2.7-3.1-4.1c-1.7-2.7-2.5-5.9-3-9c-1.1-6.2-2-12.6-1.5-18.9c0.5-6.5,3-12.5,5.9-18.3
			c1.5-2.9,2.9-6,5.1-8.5c1.9-2.2,4.4-3.9,6.9-5.3C176.5,124.1,179.3,122.8,181.9,121.2z"/>
		<g id="XMLID_2_">
			<g id="XMLID_9_">
				<path id="XMLID_14_" class="st3" d="M203.2,103.8c0.4,6.3,0.9,12.5,1.5,18.7c0,0.1,0.1,0.2,0.2,0.1c9.3-6.8,21.1-9.5,30.1-16.9
					c2.4-2,4.6-4.3,6.3-6.9c0.1-0.2-0.2-0.3-0.3-0.1c-6.3,9.9-18.1,13.7-28.1,18.8c-2.7,1.4-5.4,2.9-7.9,4.7
					c-0.6-6.1-1.1-12.3-1.5-18.5C203.5,103.6,203.1,103.6,203.2,103.8z"/>
				<path id="XMLID_13_" class="st3" d="M223.1,94.9c3.8-0.2,7.6-0.8,11.3-1.8c0.2-0.1,0.1-0.4-0.1-0.3c-3.7,1.1-7.4,1.7-11.2,1.8
					C222.9,94.6,222.9,94.9,223.1,94.9z"/>
				<path id="XMLID_12_" class="st3" d="M185.7,116.9c-0.8,11-0.3,22.1,1.6,33c0,0.1,0.2,0.2,0.3,0.1c10.9-13,29.4-13.4,43-22.1
					c3.8-2.4,7.1-5.4,9.4-9.2c0.1-0.2-0.2-0.3-0.3-0.1c-4.5,7.4-12.5,11.5-20.4,14.5c-7.3,2.8-15,4.9-21.9,8.7
					c-3.7,2-7.1,4.6-9.9,7.8c-1.8-10.7-2.3-21.7-1.5-32.5C186,116.8,185.7,116.7,185.7,116.9z"/>
				<path id="XMLID_11_" class="st3" d="M169.9,142.9c0.3,6.5,1.8,12.8,3.1,19.1c0.8,4.2,1.7,8.4,2.5,12.7c0,0.1,0.2,0.2,0.3,0.1
					c2.6-5.5,7.5-9.5,13.3-11.2c2.8-0.8,5.6-1.3,8.3-2.2c2.7-0.9,5.2-2.1,7.6-3.7c2.7-1.7,5.1-3.8,7.2-6.2c0.1-0.2-0.1-0.4-0.2-0.2
					c-4,4.5-9.1,8-14.8,9.8c-2.8,0.9-5.7,1.4-8.5,2.3c-2.7,0.8-5.3,2.1-7.5,4c-2.3,1.9-4.2,4.3-5.5,6.9c-1.4-6.9-2.8-13.8-4.1-20.7
					c-1.1-5.6-2-11.5-1.1-17.3c0.5-3.2,1.6-6.4,3.4-9.1c0.1-0.2-0.1-0.4-0.2-0.2C170.4,131.6,169.6,137.3,169.9,142.9z"/>
				<path id="XMLID_10_" class="st3" d="M157.5,170.1c0.6,5.1,2.3,10,5.1,14.3c2.7,4.3,7.2,7.8,8.1,13c0,0.1,0.2,0.2,0.3,0.1
					c2.3-2.2,4.6-4.4,7.2-6.2c2.6-1.8,5.4-3.1,8.3-4.2c2.8-1,5.5-2.1,8.1-3.6c2.7-1.6,5.2-3.4,7.7-5.3c0.2-0.1,0-0.4-0.2-0.3
					c-3.9,3-8,5.8-12.6,7.7c-2.3,0.9-4.6,1.7-6.9,2.7c-2.1,1-4.1,2.2-5.9,3.7c-2,1.6-3.9,3.3-5.8,5.1c-1-4.8-4.9-8.1-7.5-12
					c-3-4.5-4.9-9.6-5.6-15C157.8,169.9,157.5,169.9,157.5,170.1z"/>
			</g>
			<path id="XMLID_8_" class="st3" d="M193.1,138.9c-4,6.9-7.7,14-11.3,21.1c-3.1,6.2-6,12.5-8.1,19.1c-2.3,7.3-3.6,14.8-3,22.5
				c0,0.4,0.7,0.4,0.6,0c-1-14.1,4.2-27.5,10.4-39.9c3.3-6.7,6.8-13.3,10.4-19.8c4.2-7.4,8.7-14.7,14.3-21.1
				c3.2-3.7,6.9-6.9,10.6-10c3.4-2.9,6.8-6,9.4-9.7c0.2-0.3-0.2-0.7-0.5-0.4c-5,7-12.5,11.7-18.3,17.9
				C201.9,124.7,197.3,131.7,193.1,138.9z"/>
			<path id="XMLID_3_" class="st3" d="M173.8,125.7c-2.5,1.4-5,3.1-6.9,5.3c-2.2,2.5-3.6,5.6-5.1,8.5c-2.9,5.8-5.5,11.8-5.9,18.3
				c-0.5,6.3,0.5,12.7,1.5,18.9c0.5,3.1,1.3,6.3,3,9c0.9,1.5,2.2,2.7,3.1,4.1c1,1.6,1,3.5,1.5,5.3c0.6,2.9,2.1,6,5,7.2
				c0.1,0,0.2,0.1,0.3,0.1c-0.8,2.6-1.8,6.6,0.1,9c1.9,2.5,5.9,3.8,8.9,4.4c2.9,0.5,6.7,0.7,9-1.6c1-0.9,1.5-2.1,1.4-3.5
				c0-1.3-0.6-2.5-0.5-3.8c0.3-0.2,0.3-0.6,0.1-0.9c0-0.6-1-0.8-1.2-0.2c-2.2,0.2-4.3,1-6,2.4c-2,1.6-3.1,4.9-6.2,3.8
				c-2.6-0.9-3.5-3.6-2.8-6c0.4-1.6,1.4-2.9,2.5-4.1c0.3-0.2,0.6-0.5,0.9-0.8c0.7-0.6,1.5-1.1,2.2-1.7c2.6-1.7,5.3-3.4,7.7-5.5
				c2.3-2,4.5-4.2,6.8-6.3c2.4-2.3,4.8-4.5,7.2-6.8c2.2-2.1,4.6-4.1,6.6-6.4c1.7-1.9,2.9-4.2,3.2-6.8c0.3-2.7-0.1-5.4,0.2-8.1
				c0.7-5.7,3.7-11,8.1-14.6c4.6-3.7,10.3-5.8,14.2-10.4c3.8-4.5,6.2-10.4,8-15.9c2.1-6.5,1.6-13.1,1.2-19.8
				c-0.4-7.4-0.9-14.8-1.5-22.1c0-0.2-0.1-0.3-0.2-0.4L240,75c-0.1-0.7-0.9-0.7-1.2-0.2c-0.4,0.6-0.7,1.1-0.9,1.7
				c-2.8,2.2-4.6,5.2-6.5,8.2c-2.3,3.7-4.8,7-8.8,9c-3.5,1.8-7.3,2.6-11,3.8c-3.8,1.2-7.3,2.9-10.5,5.3c-2.3,0.7-4.5,1.9-6.4,3.5
				c-2.6,2.3-4.2,5.3-6.1,8.1c-1.8,2.7-4,4.9-6.8,6.7C179.3,122.8,176.5,124.1,173.8,125.7z M174.6,212.8c1.8,0.9,3.9,0.7,5.3-0.7
				c1.2-1.2,2-2.6,3.4-3.6c1.3-0.9,2.8-1.4,4.4-1.6c0.1,1.8,1,3.6,0.2,5.2c-1.3,2.9-5.5,2.7-8.1,2.4c-2.7-0.4-5.3-1.4-7.5-3
				c-1.4-1.1-1.9-2.3-1.9-4c0-1.6,0.3-3.1,0.8-4.6c0-0.1,0-0.2,0-0.2c0.6,0.1,1.1,0.1,1.7,0C170.9,206,170.4,210.8,174.6,212.8z
				 M213,98.4c3.5-1.1,7.2-2,10.5-3.7c3.4-1.8,5.8-4.5,7.9-7.6c1.8-2.7,3.4-5.7,5.6-8.1c-1.1,3.8-1.1,7.9-2.4,11.6
				c-2.3,6.5-9,9-15.3,9.9c-4.8,0.7-9.7,0.5-14.4,1.4C207.4,100.4,210.1,99.3,213,98.4z M190.2,114.4c1.8-2.8,3.6-5.9,6.4-7.9
				c1.3-1,2.8-1.7,4.4-2.3c0.2,0.1,0.4,0.1,0.6-0.1c0.1-0.1,0.2-0.1,0.2-0.2c0.8-0.2,1.5-0.4,2.3-0.6c5.7-1.2,11.6-0.8,17.3-1.9
				c5.8-1.1,11.6-3.7,14-9.4c2-4.7,1.5-10.1,3.5-14.8c0.1,0,0.1-0.1,0.2-0.1l0,0c0.5,6.6,1,13.2,1.3,19.8c0.4,6.6,1.2,13.4-0.7,19.8
				c-1.7,6.1-4.4,12.8-8.8,17.5c-4.3,4.7-10.5,6.6-15.1,11c-3.8,3.7-6.3,8.7-7,13.9c-0.4,2.8,0.1,5.6-0.3,8.4
				c-0.4,3.2-2.5,5.7-4.8,7.8c-4.8,4.7-9.7,9.3-14.6,13.9c-2.5,2.4-5.1,4.8-8,6.7c-1.8,1.2-3.7,2.3-5.4,3.6c-0.1,0-0.2,0.1-0.3,0.2
				c0,0-0.1,0.1-0.1,0.1c-0.3,0.3-0.7,0.6-1,0.9c-2.2,1.4-5.3,0-6.7-2.2c-1.7-2.7-1.4-5.8-2.6-8.6c-0.5-1.2-1.4-2.1-2.2-3.1
				c-1.1-1.3-1.9-2.6-2.6-4.2c-1.2-2.7-1.7-5.7-2.1-8.6c-0.9-6.1-1.8-12.5-0.9-18.7c0.9-6.3,3.8-12.2,6.7-17.8
				c1.6-3.1,3.3-5.9,6-8.1c2.2-1.8,4.8-3.2,7.4-4.5c2.5-1.3,5-2.6,7.2-4.4C186.9,119,188.6,116.8,190.2,114.4z"/>
		</g>
	</g>
	<g id="XMLID_16_">
		<path id="XMLID_30_" class="st2" d="M131.6,196.6c-1,3.2-2.5,5.9-4.6,8.4c-2.2,2.6-4.7,5-6.2,8.1c-1.1,2.2-1.5,4.6-1.6,7.1
			c-1.4,3.7-2.1,7.6-2.3,11.5c-0.2,3.9,0.1,7.8-0.7,11.6c-0.9,4.4-3.4,7.6-6.4,10.9c-2.4,2.6-4.8,5.2-6.2,8.5
			c-0.5,0.4-1,0.9-1.4,1.4c-0.4,0.5-0.1,1.2,0.5,1.1l1.2-0.2c0.1,0.1,0.3,0.1,0.4,0.1c7.3-1.4,14.5-2.9,21.7-4.5
			c6.6-1.5,13-2.7,18.7-6.5c4.9-3.2,9.9-7.1,13.2-12c3.4-5,3.8-11,6.2-16.5c2.3-5.2,6.6-9.5,11.8-11.7c2.5-1.1,5.2-1.4,7.8-2.4
			c2.4-1,4.2-2.8,5.6-4.9c1.7-2.5,3-5.4,4.4-8.1c1.5-2.9,3.1-5.8,4.6-8.8c1.4-2.7,2.9-5.4,4.2-8.2c1.4-2.9,2.2-5.9,3.2-8.9
			c0.3-0.9,0.6-1.8,1-2.6c0.2-0.4,0.4-0.7,0.6-1.1c0.8-1.4,1.8-2.7,3.3-3.5c2.2-1.3,5-1.2,6.6,1.1c1.8,2.7-1,4.7-2,7
			c-0.9,2-1.1,4.3-0.7,6.5c-0.5,0.4-0.1,1.3,0.5,1.1c0.3,0.1,0.7,0,0.9-0.4c1.2-0.4,2.6-0.2,3.8-0.5c1.3-0.3,2.3-1.1,3-2.3
			c1.5-2.8,0.4-6.4-0.9-9.1c-1.3-2.7-3.7-6.1-6.6-7.4c-2.8-1.2-6.4,0.8-8.7,2.3c-0.1-0.1-0.1-0.2-0.2-0.2c-1.9-2.5-5.3-3-8.2-2.8
			c-1.8,0.1-3.6,0.5-5.5,0c-1.7-0.5-3.2-1.4-4.8-1.9c-3.1-0.9-6.3-0.8-9.5-0.5c-6.2,0.6-12.7,1.5-18.6,3.6
			c-6.1,2.2-11.3,6.3-16,10.6c-2.4,2.2-5,4.4-6.8,7.2c-1.6,2.5-2.5,5.3-3.2,8.1C133,190.6,132.5,193.6,131.6,196.6z"/>
		<g id="XMLID_17_">
			<g id="XMLID_24_">
				<path id="XMLID_29_" class="st3" d="M120.6,221.8c6.1-1.3,12.3-2.5,18.4-3.6c0.1,0,0.2,0.1,0.2,0.2c-4.1,10.8-3.5,22.9-8.1,33.5
					c-1.3,2.9-2.9,5.6-5,7.9c-0.1,0.2-0.3-0.1-0.2-0.2c7.9-8.8,8.4-21.1,10.5-32.1c0.6-3,1.4-6,2.4-8.9c-6.1,1-12.1,2.2-18.2,3.5
					C120.5,222.1,120.4,221.8,120.6,221.8z"/>
				<path id="XMLID_28_" class="st3" d="M117.4,243.4c0.9,3.7,1.3,7.5,1.3,11.4c0,0.2-0.3,0.2-0.3,0c0-3.8-0.4-7.6-1.3-11.3
					C117,243.3,117.3,243.2,117.4,243.4z"/>
				<path id="XMLID_27_" class="st3" d="M128.5,201.4c10.4-3.7,21.2-6.2,32.2-7.4c0.1,0,0.2,0.1,0.2,0.2c-9.6,14-5,32-9.7,47.4
					c-1.3,4.3-3.3,8.3-6.4,11.5c-0.1,0.1-0.3-0.1-0.2-0.2c5.9-6.3,7.7-15.2,8.5-23.5c0.7-7.8,0.7-15.8,2.5-23.4
					c1-4.1,2.5-8.1,4.9-11.6c-10.8,1.2-21.5,3.6-31.7,7.3C128.5,201.8,128.3,201.5,128.5,201.4z"/>
				<path id="XMLID_26_" class="st3" d="M149.3,179.2c6.3-1.5,12.8-1.7,19.2-2.2c4.3-0.3,8.6-0.6,12.9-1c0.1,0,0.3,0.2,0.1,0.3
					c-4.6,4-7.1,9.8-7.2,15.9c0,2.9,0.2,5.7,0.1,8.6c-0.1,2.8-0.6,5.6-1.5,8.3c-0.9,3-2.3,5.9-4.1,8.6c-0.1,0.2-0.4,0-0.3-0.2
					c3.3-5,5.2-10.9,5.5-16.9c0.1-2.9-0.2-5.8-0.1-8.8c0.1-2.9,0.6-5.7,1.8-8.3c1.2-2.7,3-5.2,5.2-7.2c-7,0.5-14.1,1-21.1,1.6
					c-5.7,0.5-11.6,1.2-16.9,3.6c-3,1.3-5.7,3.2-7.8,5.7c-0.1,0.2-0.4,0-0.3-0.2C138.6,182.8,143.8,180.4,149.3,179.2z"/>
				<path id="XMLID_25_" class="st3" d="M172.2,159.9c5-0.8,10.2-0.4,15.1,1c4.8,1.5,9.5,4.9,14.7,4.3c0.1,0,0.2,0.1,0.2,0.2
					c-1.5,2.8-3,5.6-4.1,8.6c-1.1,3-1.5,6-1.8,9.1c-0.3,3-0.5,5.9-1.3,8.8c-0.8,3-1.9,5.9-3,8.8c-0.1,0.2-0.4,0.1-0.3-0.1
					c1.8-4.6,3.5-9.3,4-14.2c0.3-2.4,0.4-4.9,0.7-7.4c0.4-2.3,1.1-4.5,1.9-6.7c1-2.4,2.2-4.6,3.4-6.9c-4.9,0.4-9.1-2.5-13.6-4
					c-5.1-1.7-10.6-2.2-15.9-1.3C172,160.3,172,160,172.2,159.9z"/>
			</g>
			<path id="XMLID_23_" class="st3" d="M151.7,202.6c5.6-5.7,11.4-11.2,17.3-16.5c5.1-4.7,10.4-9.1,16.2-12.9
				c6.4-4.2,13.3-7.4,20.8-9c0.4-0.1,0.5,0.5,0.1,0.6c-13.9,2.8-25.4,11.5-35.6,20.7c-5.5,5-10.9,10.1-16.2,15.4
				c-6,6-11.8,12.3-16.4,19.5c-2.7,4.1-4.8,8.4-6.8,12.9c-1.9,4.1-3.9,8.1-6.8,11.7c-0.3,0.3-0.8,0-0.5-0.3
				c5.4-6.7,7.9-15.2,12.3-22.5C140.3,215,145.9,208.6,151.7,202.6z"/>
			<path id="XMLID_18_" class="st3" d="M131.6,196.6c-1,3.2-2.5,5.9-4.6,8.4c-2.2,2.6-4.7,5-6.2,8.1c-1.1,2.2-1.5,4.6-1.6,7.1
				c-1.4,3.7-2.1,7.6-2.3,11.5c-0.2,3.9,0.1,7.8-0.7,11.6c-0.9,4.4-3.4,7.6-6.4,10.9c-2.4,2.6-4.8,5.2-6.2,8.5
				c-0.5,0.4-1,0.9-1.4,1.4c-0.4,0.5-0.1,1.2,0.5,1.1l1.2-0.2c0.1,0.1,0.3,0.1,0.4,0.1c7.3-1.4,14.5-2.9,21.7-4.5
				c6.6-1.5,13-2.7,18.7-6.5c4.9-3.2,9.9-7.1,13.2-12c3.4-5,3.8-11,6.2-16.5c2.3-5.2,6.6-9.5,11.8-11.7c2.5-1.1,5.2-1.4,7.8-2.4
				c2.4-1,4.2-2.8,5.6-4.9c1.7-2.5,3-5.4,4.4-8.1c1.5-2.9,3.1-5.8,4.6-8.8c1.4-2.7,2.9-5.4,4.2-8.2c1.4-2.9,2.2-5.9,3.2-8.9
				c0.3-0.9,0.6-1.8,1-2.6c0.2-0.4,0.4-0.7,0.6-1.1c0.8-1.4,1.8-2.7,3.3-3.5c2.2-1.3,5-1.2,6.6,1.1c1.8,2.7-1,4.7-2,7
				c-0.9,2-1.1,4.3-0.7,6.5c-0.5,0.4-0.1,1.3,0.5,1.1c0.3,0.1,0.7,0,0.9-0.4c1.2-0.4,2.6-0.2,3.8-0.5c1.3-0.3,2.3-1.1,3-2.3
				c1.5-2.8,0.4-6.4-0.9-9.1c-1.3-2.7-3.7-6.1-6.6-7.4c-2.8-1.2-6.4,0.8-8.7,2.3c-0.1-0.1-0.1-0.2-0.2-0.2c-1.9-2.5-5.3-3-8.2-2.8
				c-1.8,0.1-3.6,0.5-5.5,0c-1.7-0.5-3.2-1.4-4.8-1.9c-3.1-0.9-6.3-0.8-9.5-0.5c-6.2,0.6-12.7,1.5-18.6,3.6
				c-6.1,2.2-11.3,6.3-16,10.6c-2.4,2.2-5,4.4-6.8,7.2c-1.6,2.5-2.5,5.3-3.2,8.1C133,190.6,132.5,193.6,131.6,196.6z M207.7,166.2
				c-0.1-0.6-0.3-1.1-0.5-1.6c0.1,0,0.1,0,0.2-0.1c1.3-0.9,2.7-1.6,4.2-2c1.7-0.5,3-0.4,4.4,0.7c2.1,1.7,3.8,3.9,4.9,6.4
				c1.1,2.4,2.3,6.4-0.1,8.4c-1.4,1.2-3.4,0.8-5.1,1.2c-0.2-1.6-0.1-3.1,0.4-4.7c0.5-1.6,1.7-2.8,2.5-4.2c1-1.8,0.6-3.8-0.7-5.3
				C214.8,161.5,210.3,163.2,207.7,166.2z M119.2,223.9c0.4,4.8,1.9,9.5,2.5,14.3c0.9,6.4,0.3,13.4-5.4,17.4
				c-3.3,2.3-7.2,3.4-10.6,5.4c1.7-2.8,4.1-5.1,6.3-7.6c2.5-2.8,4.4-5.9,5.2-9.6c0.8-3.6,0.7-7.4,0.7-11.1
				C118.2,229.7,118.5,226.7,119.2,223.9z M131.9,199.4c1.1-2.6,1.7-5.4,2.3-8.1c0.6-2.8,1.2-5.7,2.4-8.3c1.4-3.2,3.7-5.6,6.2-8
				c4.6-4.3,9.5-8.7,15.3-11.3c5.7-2.5,12.1-3.3,18.2-4.1c2.9-0.4,5.9-0.7,8.8-0.3c1.7,0.2,3.2,0.7,4.7,1.4c1.2,0.5,2.3,1.1,3.6,1.3
				c3,0.4,6-0.7,9,0.2c2.5,0.8,4.7,3.4,3.9,5.9c-0.2,0.4-0.4,0.8-0.6,1.2c0,0-0.1,0.1-0.1,0.1c-0.1,0.1-0.1,0.3-0.1,0.4
				c-0.8,2-1.3,4.2-2,6.2c-1.1,3.3-2.7,6.4-4.3,9.5c-3.1,5.9-6.2,11.9-9.4,17.8c-1.5,2.7-3.3,5.4-6.3,6.7c-2.6,1.1-5.4,1.4-8,2.5
				c-4.8,2.1-9,5.8-11.5,10.5c-3,5.5-3.2,12.1-6.5,17.5c-3.4,5.4-9.1,9.8-14.5,13.1c-5.7,3.5-12.5,4.6-18.9,6
				c-6.5,1.4-12.9,2.8-19.4,4l-0.1,0c0-0.1,0-0.1,0.1-0.2c3.9-3.2,9.3-4.2,13.3-7.4c4.8-3.9,5.8-10.2,5.3-16
				c-0.5-5.8-2.5-11.4-2.8-17.2c0-0.8-0.1-1.6,0-2.4c0-0.1,0.1-0.2,0.1-0.3c0.1-0.2,0-0.4-0.1-0.6c0.1-1.6,0.4-3.3,1-4.8
				c1.2-3.2,3.7-5.7,5.9-8.2C129.2,204.3,130.9,202,131.9,199.4z"/>
		</g>
	</g>
	<g id="XMLID_7284_">
		<path id="XMLID_7358_" class="st2" d="M75.3,149.7c5.1-3.8,11-5.6,17.3-5.4c3.7,0.1,7.3,0.8,10.8,1.7c0.9,0.2,1.8,0.4,2.7,0.7
			c-2.3-2.7-4.1-5.9-4.9-9.4c-1.2-5-0.8-10.6-0.3-15.6c0.6-5.1,1.9-10.1,4.6-14.4c2.9-4.6,7-8.4,11.3-11.7c0.1-0.1,0.2-0.1,0.4-0.2
			c0.1-0.2,0.3-0.3,0.5-0.4c7.9-1.4,15.8,0.1,22.9,3.9c7.2,3.9,13.9,8.3,18.5,15.1c2.2-2,4.6-3.7,7-5.3c2.8-1.9,5.6-3.6,8.5-5.3
			c1.4-0.8,2.8-1.5,4.2-2c1.5-0.5,3.3-0.7,4.5-1.7c0-0.5,0.5-0.9,1-0.7c0.1,0.1,0.3,0.2,0.5,0.2c0.2,0.1,0.3,0.2,0.5,0.3l0,0
			c3.6,2.3,5.2,6.5,5.8,10.7c0,0.1,0,0.3,0.1,0.4c0.1,0,0.1,0,0.2,0c5.3,1.3,9.3,5.1,12.1,9.7c1.4,2.4,2.6,4.9,3.7,7.5
			c0.9,2.2,1.9,4.4,2.4,6.8c4.8-2.9,9.9-5.1,15.6-5.3c6.5-0.2,12.7,2.1,17.5,6.2c0,0,0,0,0,0c0.7,0.7,1.6,1.3,2.3,1.9
			c0.1,0,0.1,0.1,0.2,0.1c0.8,0.7,1.6,1.3,2.4,1.9c1.5,1.1,3.1,2,4.6,3.1c2.1,1.6,1.6,4.4,1.3,6.8c-0.7,6.5-3.7,12.1-7.9,17.1
			c-2.5,2.9-4.6,6-6.4,9.4c-1.5,3.1-3,6.1-4.9,9c-2.2,3.3-4.9,6.1-8,8.4c1.1,0.2,2.2,0.4,3.3,0.7c1,0.3,1.8,0.7,2.3,1.6
			c0.1,0.1,0.2,0.2,0.3,0.4c1.6,5.4,0.8,11.2-2.2,16c-1.7,2.6-4,4.5-6.5,6.3c-2.7,2-5.2,4.3-7.7,6.5c-4.9,4.3-10.1,7.7-16.6,8.9
			c-6.8,1.2-13.9-0.2-20.6-1.7c-6.7-1.5-14-4.6-15.9-11.8c0-0.1,0-0.1,0-0.2c0,0,0,0,0,0c-1.2-1.8-2.4-3.7-2.8-5.8
			c-0.4,0.5-0.7,0.9-1.1,1.4c-2.9,3.3-6.4,5.2-10.5,6.5c-3.9,1.3-8,2.6-12.2,2.6c-4.4,0-8.4-1.9-12.8-2.5c-8-1.1-17.6-0.1-23.7-6.6
			c-2.8-3-3.4-7.1-4.5-10.9c-1.2-4.4-2.7-8.7-3.2-13.2c0-0.3-0.1-0.7-0.1-1c-5.3-5.2-12.7-7-18.7-11.1c-4.7-3.2-8.9-8.3-8.3-14.3
			C65,158.6,70.5,153.2,75.3,149.7z"/>
		<g id="XMLID_7285_">
			<g id="XMLID_7337_">
				<g id="XMLID_7342_">
					<path id="XMLID_7357_" class="st3" d="M180.7,117.5c-0.4,3.4,0.1,6.7,0.5,10c0.4,3.4,0.7,6.7,0.7,10.1c0,6.1-0.5,13.1-5,17.6
						c-0.3,0.3-0.7-0.1-0.4-0.4c4.8-4.7,5.2-12.3,5.1-18.7c0-3.3-0.3-6.5-0.7-9.7C180.6,123.6,180.3,120.5,180.7,117.5
						C180.7,117.5,180.7,117.5,180.7,117.5z"/>
					<path id="XMLID_7356_" class="st3" d="M166.3,138.6c0.2,2.4,1.2,4.6,1.9,6.9c0.3,1,0.6,2.1,0.6,3.1c0,0.4,0,0.9,0,1.3
						c0,0.2-0.3,0.9-0.3,1.2c0,0,0.1,0.1,0.1,0.2c0,0.1-0.1,0.2-0.2,0.3c-0.1,0.1-0.3,0.1-0.4-0.1c-0.1-0.2,0-0.3,0.1-0.6
						c0.2-0.6,0.3-1.1,0.4-1.7c0.1-1.4-0.2-2.8-0.6-4.1c-0.6-2.1-1.6-4.2-1.7-6.5C166.2,138.5,166.3,138.5,166.3,138.6z"/>
					<path id="XMLID_7355_" class="st3" d="M167.3,202.6c5.2,3.8,10.5,7.7,16.8,9.3c3,0.8,6.2,1,9.3,1.3c3.2,0.4,6.5,0.7,9.7,1.1
						c0,0,0,0,0,0c-3.4-0.3-6.7-0.6-10.1-0.9c-3.2-0.3-6.5-0.4-9.6-1.2c-6.1-1.6-11.4-5.4-16.4-9.1
						C166.7,202.8,167.1,202.4,167.3,202.6z"/>
					<path id="XMLID_7354_" class="st3" d="M173.9,200.3c1.9,1.7,4.3,2.9,6.7,3.8c2.4,0.9,4.9,1.6,7.5,1.9c0.1,0,0,0.1,0,0.1
						c-2.5-0.3-5-0.9-7.4-1.8c-2.5-0.9-4.7-2.3-7.1-3.6C173.4,200.6,173.7,200.1,173.9,200.3z"/>
					<path id="XMLID_7353_" class="st3" d="M178.8,199.5c4.6,2.9,9.7,4.5,15.1,4.7c0,0,0,0,0,0c-5.3-0.2-10.6-1.8-15.2-4.5
						C178.4,199.7,178.6,199.4,178.8,199.5z"/>
					<path id="XMLID_7352_" class="st3" d="M119.9,202.8c2.7-1.1,5-2.8,7-4.9c1.7-1.9,3.4-3.5,5.7-4.7c2.3-1.2,4.8-1.9,7.2-2.6
						c3-0.8,5.9-1.7,8.9-2.5c0.3-0.1,0.5,0.4,0.2,0.4c-3,0.8-6,1.6-8.9,2.4c-2.5,0.7-5,1.3-7.3,2.5c-1.2,0.6-2.3,1.3-3.3,2.2
						c-1.2,1-2.2,2.3-3.3,3.4C124.3,200.7,122.2,202,119.9,202.8C119.9,202.9,119.9,202.8,119.9,202.8z"/>
					<path id="XMLID_7351_" class="st3" d="M132.8,188.7c3.5-0.7,7.1-0.6,10.5-1.4c0.2-0.1,0.3,0.3,0,0.4c-3.2,0.7-6.4,0.6-9.6,1
						c-3.5,0.5-6.6,1.9-9.2,4.3c0,0-0.1,0-0.1,0C126.8,190.8,129.6,189.3,132.8,188.7z"/>
					<path id="XMLID_7350_" class="st3" d="M82,166.2c4,2.4,8.3,4.9,12.9,5.7c2.2,0.4,4.5,0.2,6.8,0.2c1.1,0,2.3,0,3.4-0.1
						c1,0,2.1-0.2,3,0c0.2,0,0.2,0.3,0,0.4c-1,0.2-2,0.1-3,0.1c-1.3,0-2.5,0-3.8,0c-2.2,0-4.5,0.1-6.7-0.3c-2.2-0.5-4.3-1.4-6.3-2.4
						C86.1,168.8,83.9,167.6,82,166.2C81.9,166.2,81.9,166.2,82,166.2z"/>
					<path id="XMLID_7349_" class="st3" d="M94.5,167.5c2,1.3,4.7,1.1,7.1,1.1c2,0,4,0.1,6.1,0.2c4.1,0.2,8.3,0.7,12.2,1.9
						c0.3,0.1,0.1,0.6-0.2,0.5c-4.2-1.4-8.7-1.9-13.1-2.1c-2.1-0.1-4.2-0.2-6.4-0.3C98.2,168.7,96.1,168.7,94.5,167.5
						C94.4,167.5,94.5,167.4,94.5,167.5z"/>
					<path id="XMLID_7348_" class="st3" d="M125.5,147.3c2.6,11,7.7,21,14.9,29.7c1.1,1.3,2.2,2.5,3.3,3.7c1.3,1.4,2.8,2.7,4.7,3.1
						c0.4,0.1,0.3,0.8-0.1,0.7c-3-0.6-5-3.1-6.9-5.3c-1.9-2.2-3.7-4.5-5.3-7c-3.2-4.8-5.9-10.1-8-15.5c-1.2-3.1-2.1-6.2-2.8-9.5
						C125.4,147.3,125.5,147.2,125.5,147.3z"/>
					<path id="XMLID_7347_" class="st3" d="M126,112.3c5.1,7.7,10.2,15.6,13.7,24.1c1.7,4.1,2.9,8.3,3.7,12.7
						c0.7,4.1,1.1,8.3,1.9,12.4c0.4,2.3,1,4.6,1.7,6.9c0.4,1.1,0.8,2.1,1.2,3.2c0.3,0.6,0.6,1.2,0.9,1.8c0.1,0.2,0.2,0.4,0.4,0.6
						c0,0.1,1.1,1.7,1.2,1.1c0.1-0.4,0.6-0.3,0.6,0.1c0,0.6-0.6,0.9-1.2,0.7c-0.9-0.3-1.4-1.8-1.8-2.5c-1-1.9-1.7-3.9-2.3-5.9
						c-1.2-4.2-1.7-8.6-2.3-12.9c-0.6-4.7-1.4-9.3-2.9-13.9c-1.6-4.9-3.7-9.6-6.2-14.1C132,121.8,129,117.1,126,112.3
						C125.9,112.3,125.9,112.3,126,112.3z"/>
					<path id="XMLID_7346_" class="st3" d="M145.7,143.9c4.2,9.4,1.3,20.7,7,29.5c0.2,0.3-0.3,0.7-0.5,0.3
						C146.6,164.8,149.8,153.4,145.7,143.9C145.6,143.9,145.7,143.9,145.7,143.9z"/>
					<path id="XMLID_7345_" class="st3" d="M202,174c5.1-0.1,9.5-3.3,12.9-6.8c3.6-3.6,6.6-7.9,10.4-11.3c2-1.9,4.3-3.5,6.9-4.5
						c0,0,0,0,0,0c-10,4.1-13.8,15.5-22.8,20.9c-2.2,1.3-4.7,2.2-7.3,2.4C201.6,174.7,201.5,174,202,174z"/>
					<path id="XMLID_7344_" class="st3" d="M201.5,168.4c5.4-2,9.9-5.5,13.1-10.3c0,0,0.1,0,0.1,0.1c-3.1,4.7-7.7,8.7-13,10.8
						C201.3,169,201.1,168.5,201.5,168.4z"/>
					<path id="XMLID_7343_" class="st3" d="M200.5,178.3C200.5,178.3,200.5,178.3,200.5,178.3C200.6,178.3,200.6,178.3,200.5,178.3
						c7.2,0.2,14.4-1.1,19.7-6.2c0,0,0.1,0,0.1,0c-2.9,2.8-6.5,4.6-10.4,5.5c-2,0.5-4.1,0.6-6.1,0.8c-0.7,0.1-1.4,0.1-2.1,0.2
						c-0.4,0-0.8,0.2-1.2,0C200.2,178.7,200.3,178.3,200.5,178.3z"/>
				</g>
				<g id="XMLID_7338_">
					<path id="XMLID_7341_" class="st3" d="M154.3,194.5c5.9,2,10.9-0.3,16.1-3.1c4.6-2.5,9.2-5,13.4-8.2c4.3-3.3,7.8-7.4,10.9-11.8
						c1.6-2.2,3.1-4.6,4.2-7.1c1.3-2.7,1.6-5.4,1.5-8.4c0-0.1,0.2-0.2,0.2,0c0.6,5.2-2.2,10.4-5,14.6c-3.3,4.9-6.8,9.5-11.5,13.2
						c-4.7,3.7-10,6.7-15.2,9.6c-4.9,2.7-9.6,4.1-15.1,2.4C153,195.4,153.5,194.2,154.3,194.5z"/>
					<path id="XMLID_7340_" class="st3" d="M102.5,206.9c1.3,3.5-2.1,7.1,1.1,10.3c0.6,0.6-0.2,1.5-0.8,1c-1.2-0.9-1.5-2.4-1.4-3.9
						c0.2-2.6,1.2-4.7,0.9-7.4C102.4,206.9,102.5,206.9,102.5,206.9z"/>
					<path id="XMLID_7339_" class="st3" d="M248.1,142.9c1.8,0.6,3.8,0.3,4.9,2.1c0.4,0.6-0.5,1.2-0.9,0.7c-0.7-0.8-1.1-1.5-2.1-1.9
						c-0.7-0.3-1.4-0.2-1.9-0.7C247.9,142.9,248,142.9,248.1,142.9z"/>
				</g>
			</g>
			<path id="XMLID_7304_" class="st3" d="M155.8,153.4c-0.2,1,0.4,1.8,1.2,2.3c-0.4,0-0.9,0.1-1.2,0.4c-0.5,0.5-0.3,1.1,0.2,1.4
				c-0.1,0-0.3,0.1-0.4,0.1c-0.8,0.4-1.9,1.4-1.3,2.3c0.2,0.4,0.7,0.7,1.2,0.9c-1.2,0.1-1.9,1.9-1.7,3c0.1,0.4,0.4,0.8,0.8,0.9
				c0,0.1,0,0.1,0,0.2c0,0.3,0.1,0.6,0.4,0.8c-0.3,0.3-0.3,0.8-0.1,1.2c0.3,0.6,0.7,1.1,1.3,1.2c0.2,0,0.3-0.1,0.4-0.2
				c0-0.1,0.1-0.1,0.1-0.2c0.2-0.4-0.3-0.6-0.6-0.5c-0.2-0.1-0.3-0.3-0.4-0.5c0-0.1-0.4-0.6-0.2-0.6c0.1,0,0.1-0.1,0.2-0.1
				c0.3,0.1,0.6,0.1,0.8,0c0.2,0.3,0.4,0.5,0.8,0.6c0.2,0.1,0.4,0,0.5-0.2c0.1-0.2,0-0.4-0.2-0.5c-0.2-0.1-0.4-0.2-0.5-0.4
				c0.2-0.4,0.2-0.9-0.2-1.2c0.2-0.1,1.3,0.6,1.4,0.7c0.2,0.2,0.5,0.1,0.6-0.1c0,0,0,0,0,0c0.3,0.4,0.9-0.1,0.6-0.4
				c-0.1-0.2-0.3-0.3-0.4-0.5c0.5,0,0.9-0.3,1.1-0.7c0.1,0.1,0.1,0.2,0.1,0.4c-0.1,0.5,0.7,0.6,0.7,0.1c0-0.1,0-0.1,0-0.2
				c0.2,0.1,0.6,0,0.6-0.3c0-0.6-0.1-1.2-0.2-1.7c-0.1-0.5-0.3-1.1-0.7-1.4c0-0.4-0.2-0.7-0.7-0.8c-0.5,0-0.6,0.7-0.1,0.7
				c0,0.5-0.2,0.7-0.5,0.6c-0.2,0-0.4-0.1-0.6-0.3c-0.2-0.3-0.2-0.7,0-0.9c0.2-0.5,0.8-0.7,1.3-0.7c1,0,1.7,0.8,1.8,1.7
				c0,0.1,0,0.1,0.1,0.2c0,0.1,0,0.2,0,0.2c-0.1,0.6,0.1,1.8,0.6,2.2c0.1,0.1,0.3,0.1,0.5,0c0,0,0,0,0,0c0.3-0.2,0.2-0.5-0.1-0.6
				c-0.2-0.3-0.3-1.1-0.3-1.4c0-0.1,0.1-0.3,0.1-0.4c0.5,0.2,0.5,0.8,0.8,1.3c0.2,0.3,0.4,0.6,0.8,0.6c0.5,0.1,0.9-0.2,1.1-0.6
				c0.1,0,0.3-0.1,0.3-0.3c0-0.1,0-0.3,0-0.4c0,0,0,0,0,0c0,0,0,0,0,0c0.1,0.2,0.2,0.4,0.2,0.6c0.2,0.4,0.9,0.2,0.7-0.3
				c-0.4-0.9-0.6-1.8-0.4-2.8c0.2-0.8,0.8-1.7,1.7-1.2c0.9,0.5,0.9,2.6-0.3,1.2c0.3,0.4,0.8-0.2,0.5-0.6c-0.9-0.9-1.8,0.4-1.3,1.4
				c0,0,0,0.1,0,0.1c0,0.6,0,1.1,0.1,1.7c0.1,0.4,0.5,0.5,0.7,0.1c0,0,0-0.1,0.1-0.1c0.1-0.2,0-0.3-0.1-0.4c0-0.3-0.1-0.6-0.1-0.9
				c0.9,0.3,2-0.6,1.9-1.6c0-0.7-0.5-1.4-1.2-1.7c0.3-0.2,0.6-0.5,0.5-1.1c0-0.5-0.8-0.4-0.8,0.1c-0.5,0.5-0.8,0.5-0.9-0.1
				c-0.3-0.3-0.3-0.7,0.1-1c0.3-0.2,0.9-0.2,1.2-0.1c0.7,0.4,1.1,1.2,1.2,1.9c0.3,1.2,0.3,2.5-0.1,3.7c-0.1,0.5,0.6,0.6,0.7,0.1
				c0.1-0.3,0.2-0.7,0.2-1.1c0.1,0.3,0.2,0.6,0.4,0.8c0.3,0.4,0.9,0,0.6-0.4c-0.7-0.9-0.5-2.1-0.1-3.1c0.2-0.5,0.4-1.2,0.7-1.6
				c0.2-0.1,0.5-0.2,0.7-0.3c0.8,0.1,0.8,0.5-0.1,1.2c0.1-0.5-0.6-0.6-0.7-0.1c-0.1,0.4,0,0.7,0.2,0.9c-0.3,0.6-0.1,1.2-0.1,1.8
				c0,0.6,0,1.3,0.4,1.8c0.2,0.2,0.5,0.2,0.6,0c0.1,0,0.3-0.1,0.3-0.2c0.3-0.5,0.4-1.2,0.9-1.5c0.4-0.3,1.7-0.4,1.7,0.3
				c0,0.5-0.5,0.7-0.8,0.4c-0.1-0.1-0.2-0.2-0.3-0.2c-0.3-0.1-0.6,0.1-0.8,0.3c-0.3,0.3,0.2,0.8,0.6,0.5c0.1,0.2,0.3,0.3,0.5,0.3
				c0.3,0.1,0.7,0,1-0.3c0.4-0.3,0.6-0.8,0.5-1.2c0.1,0,0.2,0.1,0.3,0.2c0,0.1-0.1,0.3-0.1,0.4c0,0.2,0,0.3,0,0.5
				c0.1,0.5,0.6,0.7,1,0.9c0.8,0.3,1.7-0.2,1.9-1c0.3-0.9-0.3-1.8-1.1-2.2c-0.3-0.1-0.7-0.3-1.2-0.3c0.4-0.5,0.3-1.2-0.1-1.8
				c-0.6-0.9-1.6-1.1-2.6-0.9c-0.3,0.1-0.5,0.2-0.7,0.3c-0.1-0.2-0.3-0.4-0.6-0.6c-0.3-0.1-0.5-0.2-0.8-0.2c0.3-0.5,0.5-1.1,0.7-1.6
				c0.1-0.3,0.4-0.7,0.3-1c-0.1-0.6-0.8-0.6-1.2-0.4c-0.3,0.1-0.5,0.3-0.7,0.6c-0.1-1.4-0.6-3.6-2.2-2.5c-0.5,0.4-0.6,1.1-0.3,1.6
				c0,0.1,0.1,0.2,0.2,0.2c-0.7-0.5-1.6-0.2-2.1,0.6c-0.4-0.7-1.2-1.4-1.9-1.8c-0.7-0.4-1.8-0.3-2,0.6c0,0,0,0,0,0
				c-0.5-0.6-1.5-1.1-2.5-1.2c-0.9-0.1-1.8,0.7-1.3,1.7c0.5,1,2.1,1.8,3,0.9c0.8-0.7-0.1-1.4-0.9-1.1c-0.5,0.2-0.2,0.9,0.3,0.7
				c-0.5,0.2-1.4-0.2-1.6-0.7c0.2-0.6,0.4-0.8,0.8-0.7c0.2,0,0.5,0.1,0.7,0.2c0.8,0.3,1.5,0.9,2,1.7c0,0,0,0,0.1,0.1
				c-0.1,0.1-0.1,0.1-0.2,0.2c-0.1,0.2-0.3,0.4-0.3,0.7c-0.5-0.5-1.4-0.9-2.1-0.3c-0.1,0.1-0.2,0.3-0.3,0.4c-0.5-0.8-1.2-1.6-2-1.8
				c-0.7-0.2-1.4,0.2-1.7,0.8C156.7,151.7,156,152.4,155.8,153.4z M177.2,158.2c0.3-0.1,0.8,0,1,0.1c0.4,0.1,0.8,0.4,1,0.8
				c0.3,0.8-0.4,1.6-1.2,1.1c-0.5-0.4,0-1-0.3-1.5C177.6,158.4,177.4,158.2,177.2,158.2z M174.3,158c0.1-0.2,0.2-0.4,0.4-0.6
				c0.3-0.4,0.6-0.5,1-0.7c0.1,0.5,0.4,0.9,0.8,1c-0.1,0.1-0.1,0.2-0.2,0.3c0,0,0,0.1,0,0.1C175.8,157.8,175,157.8,174.3,158
				C174.4,158,174.3,158,174.3,158z M173.6,157.7c0-0.1-0.1-0.1-0.1-0.2c0.1,0,0.1-0.1,0.2-0.2c0-0.1,0.1-0.2,0.1-0.4
				c0,0,0.1-0.1,0.1-0.1c0.3-0.3,0.4-0.6,0.5-1c0.2-0.2,0.5-0.3,0.8-0.4c0.5-0.1,1.2-0.1,1.6,0.4c0.1,0.1,0.3,0.4,0.3,0.5
				c0.1,0.3-0.1,0.4-0.6,0.5c0-0.1-0.1-0.2-0.1-0.4c0-0.2-0.2-0.3-0.4-0.3c-0.1-0.1-0.2-0.2-0.4-0.2c-0.5,0.1-1,0.3-1.3,0.8
				C174,157,173.8,157.4,173.6,157.7z M172.8,157.9c0,0,0,0.1,0.1,0.1c0.1,0.3,0.1,0.6,0,1c0-0.1,0-0.2,0-0.3
				C172.9,158.4,172.8,158.1,172.8,157.9z M171.6,154.7c0-0.8,0.3-1.5,0.7-2.2c0.2-0.2,0.3-0.5,0.6-0.5c0.5-0.1,0,0.3-0.1,0.6
				c-0.3,0.6-0.5,1.2-0.8,1.7c0,0,0,0,0,0.1C171.9,154.5,171.8,154.6,171.6,154.7z M170.3,156.3c0.1,0,0.1-0.1,0.2-0.2
				c0.2-0.3,0.3-0.6,0.4-0.9c0,0.2,0,0.4,0.1,0.6c-0.2,0.4-0.3,0.9-0.4,1.3C170.5,156.8,170.4,156.6,170.3,156.3z M158.8,162.5
				c0.4-0.5,1.1-0.8,1.7-0.4c0.1,0.1,0.2,0.1,0.3,0.1c0,0,0,0.1,0,0.1c0.1,0.3,0.1,0.7,0.1,1.1c-0.2-0.3-0.5-0.6-0.9-0.7
				c-0.3-0.1-0.6,0.2-0.5,0.5c0.2,0.4-0.5,0.6-0.8,0.4C158.4,163.2,158.6,162.8,158.8,162.5z M161.1,154.1c-0.1,0-0.2-0.1-0.3-0.1
				c0-0.6-0.5-1.2-1.1-1.1c-0.1,0-0.3,0.1-0.3,0.2c-0.1,0.2-0.1,0.3,0,0.5c0.1,0.1,0.3,0.1,0.4,0.1c0.2,0.2,0.2,0.2,0,0.1
				c-0.1-0.1-0.2-0.1-0.4-0.2c-0.2-0.1-0.4-0.3-0.5-0.4c-0.1-0.3-0.2-0.5-0.4-0.8c0-0.1,0-0.1,0.1-0.2c0.2-0.6,0.3-0.5,0.8-0.3
				C160.2,152.4,160.8,153.4,161.1,154.1z M161.8,155.3c-0.2-0.1-0.5-0.2-0.7-0.1c-0.2,0-0.3,0.1-0.5,0.2c-0.2,0.1-0.4,0.5-0.6,0.2
				c-0.1-0.2,0-0.5,0.1-0.7c0.2-0.2,0.5-0.2,0.7-0.1C161.2,154.9,161.5,155.1,161.8,155.3z M161.2,157.8c-0.5-0.4-1.1-0.9-1.7-1.1
				c0.2,0,0.3-0.1,0.5-0.1c0.2,0,0.4,0,0.5-0.1c0.2-0.1,0.2-0.2,0.4-0.3c0.3-0.3,0.5-0.2,0.8-0.1
				C161.4,156.6,161.2,157.2,161.2,157.8z M163.1,153.3c-0.1,0-0.2,0-0.3,0c-0.1,0-0.2,0.2-0.3,0.2c0,0,0,0-0.1,0.1
				c0-0.2,0.1-0.4,0.1-0.6C162.7,153,162.9,153.2,163.1,153.3z M171.3,152.4c-0.1-0.3-0.2-0.6-0.3-0.9c-0.1-0.2-0.2-0.3-0.3-0.5
				c-0.1-0.1-0.2-0.2-0.3-0.2c-0.3-0.2-0.1-0.4,0.6-0.5C171.3,150.6,171.3,151.8,171.3,152.4z M168.2,153.2c0-0.1-0.1-0.2-0.1-0.3
				c-0.1-0.3,0-0.8,0.3-1.1c0.7-0.7,1.3,0.2,1.6,0.8c0.4,0.9,0.5,1.9,0.1,2.8c-0.3-0.5-0.7-0.9-1.2-1.2c0.1,0,0.3-0.1,0.4-0.1
				c1.1-0.5,0.5-2.2-0.7-1.9c-0.5,0.1-0.2,0.9,0.3,0.7C168.6,153.6,168.4,153.6,168.2,153.2z M167.3,154.1c-0.1-0.9-0.4-1.7-1.2-2.2
				c-0.1-0.1-0.2-0.1-0.3-0.1c0.1-0.2,0.1-0.5-0.3-0.7c-0.2-0.1-0.4,0-0.5,0.2c0-0.1-0.1-0.1-0.2-0.1c-0.3-0.5-0.2-0.7,0.4-0.7
				c0.3,0,0.6,0.3,0.8,0.5c0.5,0.4,0.8,1,1.1,1.6c0,0.1,0.1,0.2,0.2,0.2c0,0.5,0.3,1,0.6,1.3C167.7,154,167.5,154.1,167.3,154.1z
				 M164.6,152.9c0.1-0.4,0.3-0.5,0.8-0.5c0.4,0.1,0.6,0.3,0.8,0.6c0.3,0.4,0.3,0.9,0.4,1.4c0,0,0,0.1,0,0.1
				c-0.2,0.2-0.3,0.4-0.4,0.6c0-0.6,0-1.2-0.4-1.7c-0.1-0.2-0.3-0.3-0.5-0.4C165.2,153,164.6,152.9,164.6,152.9z M165,154
				c0.5,0.4,0.4,0.7,0.3,1.3c-0.1,0.4-0.1,0.8-0.2,1.2c-0.1-0.2-0.2-0.4-0.4-0.5c0,0,0-0.1,0-0.2c0-0.7-0.2-1.4-0.5-2.1
				C164.7,153.8,164.6,153.6,165,154z M166.8,156.9c-0.2,0.1-0.3,0.2-0.5,0.3c-0.3,0.2-0.5,0.5-0.6,0.9c0-0.1,0-0.2,0-0.2
				c0.1,0,0.1-0.1,0.1-0.2c0.1-0.5,0.3-1.1,0.4-1.7C166.2,156.3,166.3,156.6,166.8,156.9C166.7,156.9,166.7,156.9,166.8,156.9z
				 M165.4,160c0-0.1-0.1-0.3-0.2-0.4c0.1,0,0.1-0.1,0.1-0.1C165.4,159.7,165.4,159.9,165.4,160z M163,160.2
				C163,160.2,163,160.2,163,160.2c0.1-0.3,0.2-0.5,0.4-0.6c0.1-0.2,0.3-0.2,0.6,0c0.5,0.2,0.5,0.2,0.7,0.7c0.1,0.3,0.2,0.7,0.2,1
				c0,0.2-0.1,0.6-0.3,0.7c-0.2,0.1-0.5-0.1-0.6-0.3c-0.1-0.2-0.2-0.5-0.3-0.7C163.6,160.6,163.3,160.3,163,160.2z M163.5,156.6
				c-0.1-0.2-0.4-0.4-0.6-0.5c1.5-0.7,2.4,2.2,1.9,2.9c-0.2-0.2-0.5-0.4-0.9-0.4C163.9,157.9,163.9,157.2,163.5,156.6z M162.2,156.8
				c0.1,0,0.1,0,0.2-0.1c0.1-0.1,0.5,0.4,0.5,0.4c0.1,0.2,0.2,0.4,0.2,0.6c0,0.4,0,0.7,0.1,1.1c-0.1,0.1-0.2,0.2-0.4,0.3
				C161.9,158.8,161.8,157.6,162.2,156.8z M162,154.5C162,154.5,162,154.5,162,154.5c0.2,0,0.5,0,0.6-0.1c0.2-0.1,0.3-0.3,0.5-0.1
				c0.2,0.2,0.1,0.7,0.1,1c-0.1,0-0.3,0-0.4,0.1c0,0,0,0,0,0c0-0.1,0-0.2-0.1-0.2C162.6,154.9,162.3,154.7,162,154.5z M158.8,157.8
				c-0.1,0-0.9,0-1-0.2c-0.1-0.5,0.5-0.4,0.7-0.4c0.9,0.1,1.7,0.6,2.4,1.3c-0.2-0.1-0.4-0.1-0.6-0.2c-0.1,0-0.2,0-0.3,0c0,0,0,0,0,0
				C159.6,158,159.2,157.9,158.8,157.8z M158.6,161.7c-0.1,0.1-0.3,0.2-0.4,0.4c-0.4-0.1-0.8-0.1-1.1,0c0-0.2,0-0.4,0.1-0.5
				c0.2-0.3,0.5-0.4,0.7-0.6C158.1,161.2,158.3,161.5,158.6,161.7z M156.5,163.1c-0.1,0-0.2,0-0.2,0c0,0,0,0,0,0
				c0-0.1,0.1-0.1,0.1-0.2c0,0,0,0,0,0c0.1,0.1,0.3,0.2,0.5,0c0.3-0.3,0.7-0.4,1-0.3c-0.1,0.2-0.1,0.4-0.1,0.7
				C157.4,163.2,156.9,163.1,156.5,163.1z M155.6,164.5c0.2-0.2,0.4-0.4,0.6-0.5c0.3-0.1,0.5-0.2,0.8-0.1c-0.1,0-0.1,0-0.2,0
				c-0.4,0.1-0.8,0.5-0.7,1c0,0.1,0.1,0.2,0.1,0.3c0,0,0.1,0,0.1,0.1c-0.1,0.4-0.3,0.5-0.5,0.4C155.4,165.4,155.3,164.8,155.6,164.5
				z M156.4,161.3c-0.1,0.1-0.1,0.3-0.1,0.5c0,0.1,0.1,0.7-0.1,0.3C156,161.9,156.2,161.6,156.4,161.3z M155.4,161.7
				c-0.1,0.3-0.1,0.5,0.1,0.8c0.1,0.1,0.1,0.2,0.2,0.3c0,0-0.1,0.1-0.1,0.1c-0.2,0.3-0.3,0.7-0.6,0.9c0,0.1-0.1,0.2-0.3,0.2
				c-0.2,0.1-0.2,0.1-0.3-0.1c-0.1-0.2-0.1-0.4-0.1-0.6C154.5,162.7,154.8,161.9,155.4,161.7z M155.5,158.6c1-0.7,2-0.1,2.7,0.6
				c-0.1,0.2-0.2,0.3-0.3,0.5c-0.2,0-0.3,0-0.5,0c0.1-0.1,0.1-0.4-0.1-0.5c-0.4-0.2-0.7-0.3-1.1-0.2c-0.4,0.1-0.5,0.7,0,0.8
				c0,0,0.1,0,0.1,0l0,0c0,0,0,0,0,0c0.1,0,0.1,0.1,0.1,0.2c0,0.2-0.2,0.3-0.4,0.3c-0.3,0.1-0.4,0-0.6-0.1c-0.4-0.2-0.5-0.5-0.4-1
				C155.1,158.9,155.4,158.7,155.5,158.6z M156.7,156.5c0.2-0.1,0.5,0,0.7,0c0.1,0,0.3,0,0.4,0.1c-0.2,0.1-0.3,0.1-0.4,0.2
				c-0.1,0.1-0.2,0.2-0.3,0.3c-0.1,0-0.1,0.1-0.2,0.1c-0.1,0-0.2-0.1-0.2-0.3C156.4,156.6,156.4,156.4,156.7,156.5z M156.7,153.1
				c0.2-0.5,0.6-0.5,1-0.4c0,0,0,0.1,0,0.1c0.1,0.2,0.3,0.6,0.7,0.9c-0.2,0.2-0.8,0.3-0.8-0.1c0.1-0.5-0.7-0.6-0.7-0.1
				c-0.1,0.9,1.3,1.7,2,1c0.1-0.1,0.1-0.2,0.2-0.2c0.2,0.1,0.3,0.2,0.5,0.3c-0.1,0.1-0.1,0.2-0.1,0.3c-0.1,0.3-0.1,0.7,0,1
				c-0.5,0-0.9-0.1-1.4-0.1c0-0.2,0-0.3-0.2-0.4C156.9,154.8,156.1,154.1,156.7,153.1z"/>
			<path id="XMLID_7286_" class="st3" d="M64.4,164.8c-0.6,6,3.6,11.2,8.3,14.3c6.1,4,13.4,5.9,18.7,11.1c0,0.3,0.1,0.7,0.1,1
				c0.5,4.5,2.1,8.8,3.2,13.2c1,3.9,1.6,7.9,4.5,10.9c6.1,6.5,15.7,5.5,23.7,6.6c4.3,0.6,8.4,2.6,12.8,2.5c4.2,0,8.2-1.4,12.2-2.6
				c4.1-1.3,7.7-3.1,10.5-6.5c0.4-0.4,0.7-0.9,1.1-1.4c0.4,2.1,1.6,4,2.8,5.8c0,0,0,0,0,0c0,0.1,0,0.1,0,0.2
				c1.9,7.2,9.2,10.3,15.9,11.8c6.7,1.5,13.8,2.9,20.6,1.7c6.5-1.2,11.8-4.6,16.6-8.9c2.5-2.2,5-4.5,7.7-6.5
				c2.5-1.8,4.8-3.7,6.5-6.3c3-4.7,3.8-10.6,2.2-16c-0.1-0.2-0.2-0.3-0.3-0.4c-0.4-1-1.2-1.3-2.3-1.6c-1.1-0.3-2.2-0.5-3.3-0.7
				c3.2-2.3,5.9-5.1,8-8.4c1.9-2.9,3.4-6,4.9-9c1.8-3.5,3.9-6.5,6.4-9.4c4.2-4.9,7.2-10.5,7.9-17.1c0.3-2.4,0.8-5.1-1.3-6.8
				c-1.5-1.1-3.1-2-4.6-3.1c-0.8-0.6-1.6-1.3-2.4-1.9c-0.1,0-0.1,0-0.2-0.1c-0.8-0.7-1.6-1.2-2.3-1.9c0,0,0,0,0,0
				c-4.8-4.1-11-6.4-17.5-6.2c-5.7,0.2-10.8,2.4-15.6,5.3c-0.5-2.3-1.5-4.6-2.4-6.8c-1.1-2.6-2.2-5.1-3.7-7.5
				c-2.8-4.6-6.8-8.3-12.1-9.7c-0.1,0-0.1,0-0.2,0c0-0.1,0-0.3-0.1-0.4c-0.6-4.2-2.1-8.4-5.8-10.7l0,0c-0.2-0.1-0.3-0.2-0.5-0.3
				c-0.2-0.1-0.3-0.1-0.5-0.2c-0.5-0.2-1,0.2-1,0.7c-1.2,1-3,1.1-4.5,1.7c-1.5,0.5-2.9,1.3-4.2,2c-2.9,1.6-5.7,3.4-8.5,5.3
				c-2.4,1.6-4.8,3.4-7,5.3c-4.6-6.8-11.3-11.2-18.5-15.1c-7.1-3.8-15-5.2-22.9-3.9c-0.3,0-0.4,0.2-0.5,0.4c-0.1,0-0.2,0.1-0.4,0.2
				c-4.3,3.4-8.4,7.1-11.3,11.7c-2.7,4.4-4.1,9.3-4.6,14.4c-0.6,5.1-0.9,10.6,0.3,15.6c0.8,3.5,2.6,6.7,4.9,9.4
				c-0.9-0.2-1.9-0.4-2.7-0.7c-3.5-0.9-7.1-1.6-10.8-1.7c-6.3-0.2-12.2,1.7-17.3,5.4C70.5,153.2,65,158.6,64.4,164.8z M186.2,116.9
				c0.5,4.9,0.4,10.1,2.7,14.5c1.2,2.4,2.8,4.6,3.9,7c1.1,2.3,1.8,4.8,2.2,7.3c0.7,5.7-0.9,11.4-5,15.5c-0.1,0.1-0.1,0.2-0.2,0.3
				c-0.9-0.2-1.8-0.4-2.6-0.6c-3.5-0.7-7-1.1-10.6-1c-6.8,0.2-13.7,2.2-19.1,6.4c-3.9,3.1-6.9,7.4-8.2,12.2
				c-2.4-1.9-3.5-5.6-4.3-8.4c-1-3.2-1.5-6.5-1.6-9.8c-0.1-2.9,0.2-5.8-0.2-8.7c-0.3-2.5-0.9-5-1.5-7.4c-1.3-4.8-3.1-9.7-6.4-13.5
				c-7.5-8.7-19.5-8-29.6-5.3c-0.4,0.1-0.5,0.4-0.5,0.7c0,0.1-0.1,0.2,0,0.3c0,0.5,0.1,1,0.2,1.4c-0.2,5.3,0.2,10.2,3.8,14.4
				c1.8,2.2,3.3,4.1,3.8,6.9c-1.2-0.7-2.5-1.2-3.8-1.6c0,0-0.1-0.1-0.1-0.1c-3.4-3.1-5.7-7.3-6.5-11.8c-0.8-4.6-0.5-9.7,0.1-14.3
				c0.6-5,2.1-9.9,5-14.1c2.8-4,6.4-7.3,10.2-10.3c0.1-0.1,0.2-0.2,0.2-0.3c7.7-1.3,15.2,0.1,22.1,3.8c7,3.8,13.5,8,18,14.7
				c-2.1,2-3.9,4.2-5.4,6.6c-3.1,5.1-4.6,11.1-3.2,17c1.2,5.2,3.6,10.3,6.6,14.8c0.2-0.5,0.6-1,1.1-1.1c-2.8-4.1-5-8.7-6.2-13.5
				c-1.6-6.5,0.4-13.1,4.4-18.4c3.8-5.2,9.2-8.9,14.5-12.3c2.7-1.7,5.4-3.5,8.4-4.8c1.9-0.8,4.1-1,5.8-2.2
				C184.9,106.2,185.6,111.5,186.2,116.9z M147.9,186.4c0.1,0.1,0.2,0.1,0.3,0.2c0,0.1,0.1,0.2,0.1,0.3c-1.2,0.8-2.7,0.3-4.1-0.1
				c-1.7-0.5-3.4-1-5-1.6c-1.9-0.7-3.8-1.6-5.5-2.7C138.7,183.4,144.1,182.7,147.9,186.4z M141.9,182.1L141.9,182.1
				c-4.4-3.9-7-9.6-10-14.5c-1.6-2.6-3.3-5.2-4.7-8c-1.2-2.4-1.9-5-3.1-7.4c-2.4-4.6-6-8-9.8-11.4c-3.7-3.2-6.8-8.2-7.6-13.2
				c0-0.3,0-0.6,0-0.9c0,0,0-0.1,0-0.1c6.3-1.6,13-2.5,19.3-0.4c10.5,3.6,14.5,16.1,15.6,26.1c0.3,2.8,0,5.6,0.1,8.4
				c0.1,2.5,0.5,5,1.1,7.4c0.9,4,2.3,9.5,6,11.9c-0.3,1.6-0.5,3.2-0.4,4.8C146.5,183.2,144.3,182.5,141.9,182.1z M149,188.3
				c0.6,2.1,1.6,4.2,3.1,6.1c2.7,3.4,6.9,7.2,11.5,8.4c-1.6,2.2-4.9,2-7.4,2.1c-2.7,0.1-5.3,0.3-8,0.6c-5.4,0.6-10.8,1.5-16.2,2.5
				c-5,1-10.2,2-15.3,1.6c-2.7-0.2-5.1-0.9-7.6-2c-1.8-0.8-3.5-1.6-5.4-1.9c0.8-3.7-1.9-6.8-3.7-9.9c-2.4-4.2-5.3-10.5-3.2-15.3
				c1.3-3,4-5,6.9-6c0,0,0.1,0,0.1,0c0.2,0,0.4-0.1,0.5-0.2c2.3-0.7,4.7-0.9,6.9-0.7c3.9,0.4,7.6,1.5,11,3.4
				c0.6,0.2,1.3,0.6,1.8,0.9c1,0.5,2,1.1,2.9,1.7c0,0,0,0,0,0c0.9,0.7,1.8,1.2,2.8,1.7c0,0,0,0,0,0c3,3,6.8,4.7,10.7,6
				C142.9,188,146.6,189.8,149,188.3z M119.9,169c-2.7-4.5-4.5-9.5-5-14.7c-0.3-2.3-0.3-4.7-0.9-6.9c-0.6-2.3-2.1-4.1-3.6-5.9
				c-1.8-2.1-3-4.3-3.5-7.1c-0.1-0.5-0.1-1-0.2-1.5c1.1,2.6,2.7,5.1,4.5,7c1.9,2.1,4.3,3.7,6.2,5.7c2.1,2.1,4,4.6,5.4,7.2
				c1.3,2.6,2.1,5.5,3.5,8.1c1.5,2.8,3.2,5.5,4.8,8.2c2.6,4.3,4.9,9,8.4,12.7c-2.7-0.3-5.5-0.5-8-1.4
				C126.5,178.4,122.5,173.4,119.9,169z M193.3,127.1c3.5,8.5,9,17.9,5.8,27.3c-0.3,0-0.6,0.1-0.9,0.4c-1,0.8-1.6,2.5-2.2,3.5
				c-0.5,0.8-1,1.6-0.6,2.5c0.2,0.4,0.5,0.7,0.8,0.9c-1.4,0.6-3.1,0.5-4.8,0.2c7.3-7.6,6-18.9,0.9-27.4c-1.6-2.7-3.2-5.2-3.7-8.4
				c-0.5-2.7-0.6-5.5-0.8-8.3c-0.5-5.4-1.2-10.9-2.1-16.3c3.2,2.9,3.9,7.7,4.3,11.9C190.4,118.3,191.5,122.7,193.3,127.1z
				 M208,135.3c-2.7,1.7-5.2,3.6-7.7,5.5c-1.4-4.9-3.7-9.6-5.6-14.2c-1.1-2.7-2.1-5.4-2.7-8.2c-0.4-2.1-0.6-4.2-0.8-6.3
				c5,1.3,8.6,5.2,11.2,9.5c1.3,2.2,2.3,4.5,3.3,6.9C206.7,130.7,207.7,132.9,208,135.3z M247,143.2c-0.8,2.6-0.2,5,0.1,7.6
				c0.4,3.7-0.8,6.8-3.1,9.7c-1.9,2.4-4.1,4.5-5.9,7c-1.8,2.4-3.2,5.1-4.4,7.9c-2.6,5.8-4.9,11.4-9.6,15.9c-1.4,1.3-2.9,2.8-4.5,3.8
				c-0.1,0.1-0.3,0.1-0.4,0.2c-0.1,0.1-0.2,0.1-0.3,0.2c-0.7,0.4-1.4,0.7-2.2,0.9c-2.8,0.8-6.5,1.3-9.3,0.4
				c-1.2-0.4-2.3-1.1-3.5-1.5c-1.2-0.3-2.2-0.2-3.3,0c-3.4,0.4-6-1.4-8.6-3.4c-0.2-0.1-0.3-0.2-0.5-0.2c2.2-2.2,4.2-4.6,5.8-7.3
				c3.5-5.7,4.8-11.8,4.9-18.4c0.1-2.9,1.1-6,0-8.8c-0.3-0.7-0.9-1.6-1.6-2.3c1.4-4.3,1.2-8.5,0.2-12.6c0.1,0,0.1-0.1,0.2-0.1
				c6.8-5.2,14.1-10.8,22.9-11.5C233.4,130,242.3,135,247,143.2z M226.8,190.6c1.2-1.3,2.4-2.8,3.3-4.4c1.8-2.9,3.1-6.1,4.5-9.2
				c1.4-3.3,3-6.5,5.3-9.3c2-2.5,4.4-4.8,6.2-7.5c1.5-2.3,2.6-4.8,2.6-7.5c0-2.9-1.2-5.9-0.4-8.8c0,0,0,0,0-0.1
				c0.2-0.2,0.3-0.6,0.1-0.9c-0.3-0.5-0.6-1-0.9-1.5c0.8,0.5,1.5,1.1,2.3,1.6c0.5,0.3,1.1,0.6,1.5,1c0.6,0.8,0.5,1.8,0.5,2.7
				c0,1.7-0.2,3.3-0.6,5c-0.6,2.9-1.7,5.7-3.1,8.3c-1.6,2.8-3.8,5.1-5.8,7.6c-4.1,4.9-6.1,11-9.5,16.3
				C231.2,186.3,229.2,188.6,226.8,190.6z M219.3,219.3c0.1-0.9,0-1.9-0.2-2.8c-0.2-0.8-0.7-1.7-0.6-2.5c0.2-1.7,1.7-2.2,3-2.8
				c3.2-1.7,6.4-3.7,8.5-6.7c0.5-0.7,0.9-1.5,1.2-2.3c-0.2,4.4-1.9,8.7-5,11.8C224,215.8,221.5,217.4,219.3,219.3z M167.2,225.2
				c0.2,0.1,0.5,0.3,0.7,0.4c2.7,1.4,5.8,1.7,8.7,2.2c3.3,0.5,6.6,1,9.9,1.2c5.4,0.2,11-0.5,15.8-3.1c2.7-1.5,4.8-4,7.6-5.1
				c2.6-1,4.4,0.3,6.7,0.9c-1.4,1.2-2.8,2.5-4.2,3.7c-4.6,3.8-9.9,6.4-15.9,7c-6.2,0.6-12.7-0.7-18.7-2.1
				C173.9,229.3,170,227.8,167.2,225.2z M160.7,212.2c1.8-2.8,3.3-5.9,4.5-9c0-0.1,0-0.1,0-0.2c0.7,0.1,1.3,0.1,2,0
				c5.8-0.4,11.9-2.9,16.9-5.8c2.4-1.4,4.6-3,6.6-4.9c0,0.2,0.1,0.4,0.3,0.6c2.4,1.8,5.2,3.8,8.3,3.8c2,0,3.5-0.5,5.4,0.4
				c1.5,0.7,2.9,1.3,4.6,1.4c2.6,0.2,5.4-0.2,7.9-0.9c1.1-0.3,2.1-0.8,3.1-1.4c1.4-0.6,2.7-1.3,4-2.1c1.4,0.2,2.9,0.4,4.2,0.9
				c1.4,0.5,2,0.9,2.1,2.4c0,0.8,0,1.6-0.2,2.4c-0.8,3.5-3.5,6.1-6.5,8c-1.4,0.9-2.9,1.6-4.3,2.4c-1.1,0.6-2.1,1.2-2.4,2.5
				c-0.3,1,0,2,0.3,3c0.4,1.6,0.6,3,0.3,4.5c-2.3-0.2-4.1-1.9-6.5-1.5c-2.3,0.4-4.2,1.9-6,3.3c-4.4,3.5-9.5,5.1-15.2,5.3
				c-5.9,0.2-12-0.7-17.7-2c-3.5-0.8-5.9-2.5-7.9-5.4c-1.6-2.3-3.3-4.7-3.4-7.6C160.8,212.4,160.8,212.3,160.7,212.2z M153.5,193.8
				c-3.3-4-4.3-9-3.2-14c2.2-10,11.5-16.3,21.2-17.9c5.3-0.9,10.8-0.5,16,0.7c4,0.9,9.2,2.4,11.9-1.7c0.1-0.2,0.1-0.3,0.1-0.5
				c0.3-0.7-0.7-1.5-1.3-0.8c-0.3,0.6-0.7,0.6-1.3-0.1c0.2-0.4,0.5-0.8,0.7-1.1c0.3-0.5,0.6-1.3,1-1.7c1.7-1.5,2.4,2.3,2.4,3.4
				c0,1.6-0.3,3.1-0.4,4.7c-0.1,1.5,0,3-0.1,4.5c-0.4,6.2-2.8,12.2-6.5,17.1c-6.1,8.2-16,13.7-26.1,15.1
				C162.4,202.3,156.9,198,153.5,193.8z M98.1,176.2c-0.1,0.1-0.2,0.2-0.3,0.3c-3.8,3.8-3.6,8.8-2,13.6c0.9,2.6,2,5,3.5,7.4
				c1.5,2.4,3.7,5.1,2.9,8.1c0,0,0,0,0,0c0,0,0,0,0,0c-0.1,0.3-0.5,0.7-0.4,1.1c0.1,0.2,0.2,0.3,0.4,0.4c0.1,0,0.2,0,0.3,0l0,0
				c0,0,0,0,0,0c0.2,0,0.3,0,0.5,0.1c0,0,0,0,0,0c2.8,0.4,5.3,1.9,8,2.8c2.4,0.8,4.9,1.2,7.4,1.2c5.3,0.1,10.5-1,15.7-2
				c5.9-1.1,11.8-2,17.8-2.5c3.2-0.3,7.8,0.3,10.9-1.4c-1.5,3.4-3.4,6.8-6,9.5c-3.2,3.5-7.4,4.9-11.8,6.3c-3.7,1.1-7.7,2.1-11.6,1.7
				c-3.8-0.5-7.3-2.1-11.2-2.5c-7.4-0.8-16.9,0-22.2-6.4c-2.5-3-2.9-7-3.9-10.7c-1.1-3.9-2.4-7.8-2.9-11.9
				C92.4,186.1,93.8,179.4,98.1,176.2z M66,164.1c1.1,3.9,5,7.5,8,9.6c5.4,3.8,12.4,4.2,17.7,8.3c0.2,0.1,0.3,0.2,0.5,0.2
				c-0.6,1.9-0.8,3.9-0.9,5.9c-4.9-4.2-11.2-6.1-16.7-9.5C69.7,175.7,64.8,170.4,66,164.1z M67.2,160.8c2.2-4.6,6.8-8.5,10.8-11.1
				c5.2-3.3,11.2-4.4,17.3-3.7c2.8,0.3,5.5,0.9,8.2,1.6c3.1,0.8,6.6,1.4,9.2,3.2c0.1,0.1,0.2,0.1,0.3,0.1c0.2,2.1,0.3,4.3,0.7,6.4
				c0.9,4.8,2.8,9.4,5.5,13.6c1,1.6,2.2,3.2,3.5,4.7c-5.9-3.2-13.2-4.8-19.4-2.6c-3.9,0.1-7.4,2.4-9.5,5.6c-0.5,0.7-0.9,1.5-1.2,2.3
				c0,0,0,0,0,0c-4.4-3.4-10-4.3-14.9-6.7c-2.8-1.3-5.2-3.3-7.1-5.6c-1.7-2-3.7-4.4-3.3-7.2C67.3,161.1,67.2,160.9,67.2,160.8z"/>
		</g>
	</g>
</g>
</svg>
