<?xml version="1.0" encoding="utf-8"?>
<!-- Svg Vector Icons : http://www.onlinewebfonts.com/icon -->
<!DOCTYPE svg PUBLIC "-//W3C//DTD SVG 1.1//EN" "http://www.w3.org/Graphics/SVG/1.1/DTD/svg11.dtd">
<svg version="1.1" xmlns="http://www.w3.org/2000/svg" xmlns:xlink="http://www.w3.org/1999/xlink" x="0px" y="0px" viewBox="0 0 1000 1000" enable-background="new 0 0 1000 1000" xml:space="preserve">
<metadata> Svg Vector Icons : http://www.onlinewebfonts.com/icon </metadata>
<g><g><path d="M511.8,40.4c-2.1-4.2-6.6-6.8-11.7-6.8s-9.7,2.6-11.7,6.8L344,332.9L21.2,379.8c-5,0.7-9,4.1-10.6,8.9c-1.6,4.8-0.3,9.9,3.3,13.4l233.5,227.6l-55.1,321.4c-0.9,4.9,1.2,9.8,5.2,12.8c2.2,1.7,4.9,2.5,7.7,2.5c2.1,0,4.2-0.5,6.1-1.5L500,813.2l288.6,151.7c4.3,2.3,9.8,1.9,13.8-1c4-2.9,6.1-7.9,5.2-12.8l-55.1-321.5L986,402c3.6-3.5,4.8-8.6,3.3-13.4c-1.5-4.8-5.6-8.2-10.6-8.9l-322.7-46.9L511.8,40.4z M729.3,615.7c-3,3-4.5,7.4-3.7,11.6l51.8,302.1L506.1,786.8c-1.9-1-4-1.5-6.1-1.5c-2.1,0-4.2,0.5-6.1,1.5L222.7,929.4l51.8-302.1c0.7-4.3-0.7-8.5-3.7-11.6L51.2,401.8l303.3-44.1c4.3-0.6,8-3.3,9.9-7.2L500,75.8l135.6,274.8c1.9,3.9,5.6,6.5,9.9,7.2l303.3,44.1L729.3,615.7z"/></g><g></g><g></g><g></g><g></g><g></g><g></g><g></g><g></g><g></g><g></g><g></g><g></g><g></g><g></g><g></g></g>
</svg>